Coordinates
version=1
nRows=10
nColumns=40
inDegrees=yes

Units are S.I. units (second, meters, Newtons, ...)
Angles are in degrees.

endheader
time	pelvis_tilt	pelvis_list	pelvis_rotation	pelvis_tx	pelvis_ty	pelvis_tz	hip_flexion_r	hip_adduction_r	hip_rotation_r	knee_angle_r	knee_angle_r_beta	ankle_angle_r	subtalar_angle_r	mtp_angle_r	hip_flexion_l	hip_adduction_l	hip_rotation_l	knee_angle_l	knee_angle_l_beta	ankle_angle_l	subtalar_angle_l	mtp_angle_l	lumbar_extension	lumbar_bending	lumbar_rotation	arm_flex_r	arm_add_r	arm_rot_r	elbow_flex_r	pro_sup_r	wrist_flex_r	wrist_dev_r	arm_flex_l	arm_add_l	arm_rot_l	elbow_flex_l	pro_sup_l	wrist_flex_l	wrist_dev_l
     14.51000000	     -1.38262681	     -5.65916756	     -2.10064590	      0.99873967	      0.92890715	      0.58094269	     11.86853195	      5.98729530	    -13.01158931	     20.01362896	     20.01362896	     11.95277151	     -1.05367301	     -4.29794407	     19.20297689	    -17.41982694	     -4.94116343	     58.09354368	     58.09354368	     17.28786746	    -19.58076831	     23.15322956	    -10.36681121	      7.94056564	      2.15234068	      8.30714353	    -17.80452011	    -15.90032078	     47.31850299	     44.29079659	      0.00000000	      0.00000000	     10.99350243	    -10.90445805	     -2.92117587	     42.96883744	     44.94859315	      0.00000000	      0.00000000
     14.52914286	     -1.33826281	     -5.48451282	     -1.67091695	      0.99600379	      0.92808735	      0.58143607	     12.03256268	      5.81539247	    -12.84852610	     20.79053079	     20.79053079	     12.43498245	     -2.11609025	     -4.38231783	     20.31681626	    -17.17947075	     -4.59881596	     56.59883949	     56.59883949	     17.60634091	    -19.57637427	     22.95417487	    -10.53027410	      7.71862244	      1.98777644	     10.23788048	    -17.50157177	    -15.83989658	     48.46629607	     44.28250366	      0.00000000	      0.00000000	      8.81992072	    -10.43583309	     -2.32090906	     40.98579299	     44.88283574	      0.00000000	      0.00000000
     14.54828571	     -1.27770207	     -5.34831918	     -1.22827213	      0.99311009	      0.92721346	      0.58190125	     12.17029628	      5.72582209	    -12.52419176	     21.54600616	     21.54600616	     12.95578123	     -3.37657537	     -4.13399887	     21.35694396	    -16.92537444	     -4.23219654	     54.89891796	     54.89891796	     17.78491122	    -19.56621867	     22.67782583	    -10.71291237	      7.53969409	      2.04594023	     12.23334543	    -17.45937316	    -15.23813513	     49.27567471	     44.31679429	      0.00000000	      0.00000000	      7.30307336	     -9.93409555	     -0.78250737	     37.40973421	     44.78558409	      0.00000000	      0.00000000
     14.56742857	     -1.23815160	     -5.15217659	     -0.75449460	      0.99011740	      0.92616917	      0.58218082	     12.39169438	      5.49907771	    -12.43609132	     22.42792635	     22.42792635	     13.47502866	     -4.35462310	     -4.24903372	     22.37153576	    -16.51930021	     -3.81041205	     53.06937912	     53.06937912	     17.91048937	    -19.55520855	     22.53833706	    -10.93003137	      7.27511222	      1.87595264	     14.29199628	    -17.17765056	    -15.13445613	     50.56425588	     44.29883214	      0.00000000	      0.00000000	      5.19976642	     -9.47334760	     -0.11661912	     35.41746572	     44.70472830	      0.00000000	      0.00000000
     14.58657143	     -1.21185486	     -5.00085513	     -0.25412813	      0.98701779	      0.92511617	      0.58230828	     12.58318188	      5.34102863	    -12.30580754	     23.20248377	     23.20248377	     13.93664370	     -5.43015958	     -4.24790317	     23.35530526	    -16.08196953	     -3.29960122	     51.14952642	     51.14952642	     17.91342432	    -19.54085351	     22.37498438	    -11.15145993	      7.05863653	      1.74386937	     16.41859174	    -16.96547258	    -14.89041050	     51.77492432	     44.27819144	      0.00000000	      0.00000000	      3.31728161	     -9.00922691	      0.64541309	     33.18868710	     44.60979203	      0.00000000	      0.00000000
     14.60571429	     -1.20718424	     -4.85298768	      0.26378831	      0.98383612	      0.92409766	      0.58222453	     12.75391353	      5.17578357	    -12.23187135	     23.88419251	     23.88419251	     14.37194937	     -6.40744273	     -4.22658338	     24.32022991	    -15.57506228	     -2.72696021	     49.19234159	     49.19234159	     17.78652472	    -19.52096409	     22.18955745	    -11.35996599	      6.83633739	      1.70039673	     18.53610345	    -16.83871914	    -14.59089510	     52.98355720	     44.25389395	      0.00000000	      0.00000000	      1.61322704	     -8.57046732	      1.38266143	     31.09337447	     44.51234262	      0.00000000	      0.00000000
     14.62485714	     -1.25201695	     -4.72592476	      0.81965975	      0.98057486	      0.92320391	      0.58187579	     12.88854252	      5.01385217	    -12.27126576	     24.38099254	     24.38099254	     14.74524486	     -7.23085387	     -4.19227495	     25.29879149	    -15.00857768	     -2.07757592	     47.21722836	     47.21722836	     17.54281263	    -19.49221757	     22.00226634	    -11.52652078	      6.66044883	      1.73178317	     20.59683704	    -16.83875959	    -14.30830617	     54.22363021	     44.22620028	      0.00000000	      0.00000000	      0.03167569	     -8.14983407	      2.02342188	     29.33014373	     44.41986096	      0.00000000	      0.00000000
     14.64400000	     -1.34755300	     -4.65708716	      1.40783816	      0.97729920	      0.92248631	      0.58132084	     12.97928998	      4.90317123	    -12.39694373	     24.68501043	     24.68501043	     15.03600697	     -7.92818897	     -4.08777845	     26.29726212	    -14.42245527	     -1.31376532	     45.26699711	     45.26699711	     17.16337965	    -19.44660963	     21.61112450	    -11.62695057	      6.51806908	      1.69795256	     22.66558010	    -16.84285292	    -13.85218971	     55.66169334	     44.19118895	      0.00000000	      0.00000000	     -1.42384426	     -7.78835612	      2.79119587	     27.57143491	     44.31072402	      0.00000000	      0.00000000
     14.66314286	     -1.48804311	     -4.58994975	      2.00675083	      0.97398089	      0.92208224	      0.58051109	     12.99098013	      4.77178712	    -12.63055137	     24.75021555	     24.75021555	     15.26165865	     -8.36729623	     -3.99714009	     27.25236770	    -13.77552251	     -0.52659748	     43.28050203	     43.28050203	     16.57066337	    -19.39699392	     21.02926543	    -11.69889606	      6.36952123	      1.75948486	     24.61152036	    -17.01752999	    -13.29839274	     57.30355868	     44.15334972	      0.00000000	      0.00000000	     -2.75449898	     -7.50871680	      3.62786814	     26.20699259	     44.19037650	      0.00000000	      0.00000000
     14.68228571	     -1.72761253	     -4.56822533	      2.58906830	      0.97069866	      0.92192073	      0.57949296	     12.98963960	      4.66894635	    -12.97597537	     24.58768452	     24.58768452	     15.36463075	     -8.59480191	     -3.96508778	     28.25608416	    -13.12256488	      0.29962020	     41.37554255	     41.37554255	     16.23506283	    -19.27977411	     21.09358373	    -11.63712873	      6.25048229	      2.42917126	     26.42106292	    -17.68822311	    -13.38346298	     58.18885295	     44.14023779	      0.00000000	      0.00000000	     -3.90953169	     -7.21981466	      3.77025664	     25.75400742	     44.15244419	      0.00000000	      0.00000000
